<svg xmlns="http://www.w3.org/2000/svg" viewBox="0 0 100 100" id="1451281369" class="svg u_1451281369" data-icon-name="business_papers_pen" alt="Warranty"> <path d="M21.28,88.31h52V17.7h-6v-6h-52V82.3h6ZM71.14,19.79V86.22H23.37V82.3H67.22V19.79Zm-53.78-6H65.13V80.21H17.36Z"/>
    <path d="M40.53,17.7H21.28V37H40.53ZM38.44,34.86H23.37V19.79H38.44Z"/>
    <path d="M35.69,23.59a1,1,0,1,0-2.09,0V30H28.21V23.59a1,1,0,1,0-2.09,0v8.52h9.57Z"/>
    <path d="M21.34,43H61a1,1,0,1,0,0-2.09H21.34a1,1,0,1,0,0,2.09Z"/>
    <path d="M21.34,49.31H61a1,1,0,0,0,0-2.09H21.34a1,1,0,0,0,0,2.09Z"/>
    <path d="M21.34,55.61H61a1,1,0,1,0,0-2.09H21.34a1,1,0,1,0,0,2.09Z"/>
    <path d="M44.9,19.79H61a1,1,0,0,0,0-2.09H44.9a1,1,0,0,0,0,2.09Z"/>
    <path d="M44.9,26.09H61A1,1,0,1,0,61,24H44.9a1,1,0,0,0,0,2.09Z"/>
    <path d="M61,61.91a1,1,0,1,0,0-2.09H21.34a1,1,0,1,0,0,2.09Z"/>
    <path d="M61,73.88H47.26a1,1,0,0,0,0,2.09H61a1,1,0,0,0,0-2.09Z"/>
    <path d="M48.37,65.68a1,1,0,0,0-1,1v5.19H60.9V66.73a1,1,0,0,0-2.09,0v3.1H49.41v-3.1A1,1,0,0,0,48.37,65.68Z"/>
    <path d="M80.49,83.79v3.47a1,1,0,1,0,2.09,0V83.79a3.19,3.19,0,0,0,2.15-3V47.5a3.19,3.19,0,0,0-6.38,0V80.79A3.19,3.19,0,0,0,80.49,83.79Zm-.06-36.3a1.1,1.1,0,1,1,2.2,0v1.1h-2.2Zm0,3.19h2.2V74.45h-2.2Zm2.2,25.85v4.25a1.1,1.1,0,0,1-2.2,0V76.54Z"/>
</svg>